#!OML:ASF X:\für Bonn\!DataBase\2005_08_10_Bjorn_Final\c3d\bjorn.ASF
:FULLY-SPECIFIED
:DEGREES
59
root 4.44026 23.0562 22.1373 5.81751 -5.71118 2.38729
lowerback 3.82288 0.991096 -0.16508
upperback 5.89542 1.33681 -0.910217
thorax 3.95296 0.679009 -0.850344
lowerneck 2.05689 -2.21937 -0.863905
upperneck 7.50686 -3.00918 0.85247
head 2.02039 -1.50081 0.376744
rclavicle 8.10048e-015 5.1684e-015
rhumerus -22.7358 -5.19853 -71.7397
rradius 112.934
rwrist -198.517
rhand -4.77083e-015 3.59403e-013
rfingers 7.12502
rthumb 25.5904 -28.3008
lclavicle 8.10048e-015 5.1684e-015
lhumerus -21.5774 -23.7669 70.7182
lradius 104.464
lwrist -3.87143
lhand 3.48271e-013 -4.90601e-013
lfingers 7.12502
lthumb 25.5904 28.3008
rfemur -27.6442 -10.0471 13.5529
rtibia 38.9047
rfoot 6.0996 9.1657
rtoes -6.03477
lfemur -28.1315 9.87568 -19.4066
ltibia 37.625
lfoot 12.4038 -5.95657
ltoes -23.8782
60
root 4.42572 22.8972 22.256 5.94462 -5.85985 2.30239
lowerback 4.02102 0.999151 -0.0853216
upperback 6.03592 1.34826 -0.940131
thorax 3.99171 0.688858 -0.928322
lowerneck 1.75558 -2.2034 -0.814191
upperneck 7.38216 -2.9893 0.917661
head 2.03287 -1.48764 0.386318
rclavicle 3.13086e-015 -1.98785e-015
rhumerus -22.9065 -4.83504 -73.2065
rradius 111.78
rwrist -197.842
rhand 1.43125e-014 3.37139e-013
rfingers 7.12502
rthumb 25.5904 -28.3008
lclavicle 3.13086e-015 -1.98785e-015
lhumerus -21.9441 -23.9298 71.7591
lradius 103.031
lwrist -4.00074
lhand 2.16278e-013 -3.42705e-013
lfingers 7.12502
lthumb 25.5904 28.3008
rfemur -28.3733 -9.611 13.5724
rtibia 39.0866
rfoot 6.47552 8.97322
rtoes -5.41548
lfemur -28.7921 9.68937 -19.274
ltibia 37.6376
lfoot 12.0975 -5.76031
ltoes -24.4078
61
root 4.41243 22.7265 22.3752 6.12106 -5.99613 2.20052
lowerback 4.12648 0.993838 0.0107704
upperback 6.20913 1.34243 -0.943192
thorax 4.11651 0.690405 -0.985686
lowerneck 1.16886 -2.19591 -0.77236
upperneck 7.46021 -2.97458 0.870746
head 2.16033 -1.47848 0.357843
rclavicle 1.41137e-014 -8.94531e-016
rhumerus -23.0066 -4.53421 -74.574
rradius 110.588
rwrist -197.305
rhand 3.47078e-013 -4.34941e-013
rfingers 7.12502
rthumb 25.5904 -28.3008
lclavicle 1.41137e-014 -8.94531e-016
lhumerus -22.2161 -23.9277 72.859
lradius 101.566
lwrist -4.15073
lhand 1.4233e-013 1.94014e-013
lfingers 7.12502
lthumb 25.5904 28.3008
rfemur -29.1156 -9.10394 13.5734
rtibia 39.2901
rfoot 7.02175 8.65095
rtoes -4.08815
lfemur -29.5128 9.50093 -19.1177
ltibia 37.7352
lfoot 11.8255 -5.46702
ltoes -25.0251
62
root 4.39819 22.5448 22.4961 6.30882 -6.16999 2.1177
lowerback 4.17561 1.00937 0.0972786
upperback 6.39206 1.36575 -0.982131
thorax 4.28486 0.707336 -1.07374
lowerneck 0.429858 -2.21019 -0.59565
upperneck 7.65905 -2.98524 0.721716
head 2.35205 -1.48026 0.271369
rclavicle -2.33572e-015 -5.26779e-015
rhumerus -23.1613 -4.28574 -75.9778
rradius 109.241
rwrist -196.51
rhand 2.74323e-013 3.06924e-013
rfingers 7.12502
rthumb 25.5904 -28.3008
lclavicle -2.33572e-015 -5.26779e-015
lhumerus -22.4772 -23.8571 73.9237
lradius 100.161
lwrist -4.26768
lhand 1.33106e-012 -4.69927e-013
lfingers 7.12502
lthumb 25.5904 28.3008
rfemur -29.8488 -8.52855 13.5256
rtibia 39.5296
rfoot 7.61126 8.32861
rtoes -2.83658
lfemur -30.2297 9.29276 -18.9645
ltibia 37.9295
lfoot 11.4986 -5.09484
ltoes -25.8753
63
root 4.38394 22.3504 22.6169 6.4957 -6.30768 2.04393
lowerback 4.20133 1.02493 0.171778
upperback 6.58338 1.38891 -1.0122
thorax 4.47517 0.723796 -1.14542
lowerneck -0.222036 -2.2318 -0.456526
upperneck 7.76423 -3.01019 0.630244
head 2.50091 -1.48937 0.209937
rclavicle 1.43125e-014 -1.05356e-014
rhumerus -23.3123 -4.11089 -77.2999
rradius 107.716
rwrist -195.671
rhand -6.71296e-013 1.03408e-012
rfingers 7.12502
rthumb 25.5904 -28.3008
lclavicle 1.43125e-014 -1.05356e-014
lhumerus -22.7838 -23.6933 75.0703
lradius 98.8395
lwrist -4.29166
lhand -6.55194e-013 1.15772e-012
lfingers 7.12502
lthumb 25.5904 28.3008
rfemur -30.5497 -7.89731 13.4303
rtibia 39.8104
rfoot 8.18061 7.97261
rtoes -1.876
lfemur -30.945 9.11591 -18.8155
ltibia 38.2532
lfoot 11.1376 -4.75121
ltoes -27.0085
64
root 4.37038 22.1425 22.7389 6.65009 -6.43141 1.96747
lowerback 4.23257 1.02782 0.27405
upperback 6.78305 1.39579 -1.05124
thorax 4.6723 0.73406 -1.24197
lowerneck -0.57221 -2.20148 -0.428838
upperneck 7.53124 -2.97534 0.733564
head 2.48828 -1.46822 0.235979
rclavicle -1.16289e-014 1.25234e-014
rhumerus -23.5216 -3.99636 -78.5901
rradius 106.208
rwrist -194.953
rhand 3.35946e-013 -3.26603e-013
rfingers 7.12502
rthumb 25.5904 -28.3008
lclavicle -1.16289e-014 1.25234e-014
lhumerus -23.1509 -23.4615 76.2157
lradius 97.6035
lwrist -3.98103
lhand 9.1759e-013 -7.4266e-013
lfingers 7.12502
lthumb 25.5904 28.3008
rfemur -31.1948 -7.28473 13.3134
rtibia 40.1732
rfoot 8.67179 7.74972
rtoes -1.75162
lfemur -31.588 8.88483 -18.6325
ltibia 38.6996
lfoot 10.732 -4.36728
ltoes -27.8569
65
root 4.35734 21.9207 22.8613 6.7699 -6.53965 1.89632
lowerback 4.27706 1.02149 0.351735
upperback 6.99118 1.38928 -1.0684
thorax 4.86982 0.736226 -1.30237
lowerneck -0.729867 -2.16719 -0.409995
upperneck 7.08781 -2.93147 0.809449
head 2.37047 -1.44481 0.258535
rclavicle 2.08724e-015 1.2921e-014
rhumerus -23.735 -4.0268 -79.7791
rradius 104.598
rwrist -194.505
rhand -3.29883e-013 7.0171e-013
rfingers 7.12502
rthumb 25.5904 -28.3008
lclavicle 2.08724e-015 1.2921e-014
lhumerus -23.563 -23.1672 77.4108
lradius 96.3565
lwrist -3.58483
lhand 1.31993e-013 -1.03368e-013
lfingers 7.12502
lthumb 25.5904 28.3008
rfemur -31.7927 -6.65583 13.1641
rtibia 40.6498
rfoot 9.26233 7.50131
rtoes -1.17698
lfemur -32.1686 8.55586 -18.4149
ltibia 39.2615
lfoot 10.5733 -3.96076
ltoes -28.6342
66
root 4.34672 21.6778 22.9871 6.83392 -6.62497 1.86051
lowerback 4.34753 0.992594 0.419515
upperback 7.20394 1.3528 -1.09365
thorax 5.05718 0.723478 -1.36622
lowerneck -1.02292 -2.14325 -0.373056
upperneck 6.85247 -2.89769 0.794753
head 2.34457 -1.42746 0.246382
rclavicle -1.38404e-014 1.50082e-014
rhumerus -23.9377 -4.16349 -80.9299
rradius 102.869
rwrist -194.121
rhand 2.61203e-013 -3.86835e-013
rfingers 7.12502
rthumb 25.5904 -28.3008
lclavicle -1.38404e-014 1.50082e-014
lhumerus -24.0319 -22.8438 78.638
lradius 95.0332
lwrist -3.14562
lhand 6.20208e-013 -6.24979e-013
lfingers 7.12502
lthumb 25.5904 28.3008
rfemur -32.3436 -6.05507 12.938
rtibia 41.2921
rfoot 9.99091 7.25544
rtoes -0.264934
lfemur -32.6575 8.20402 -18.2258
ltibia 39.9151
lfoot 10.7573 -3.5346
ltoes -28.6548
67
root 4.33546 21.4113 23.1184 6.8301 -6.71969 1.80695
lowerback 4.41287 0.978888 0.490928
upperback 7.45312 1.33601 -1.10035
thorax 5.28683 0.720738 -1.41258
lowerneck -1.39906 -2.15869 -0.24653
upperneck 6.68978 -2.91064 0.623138
head 2.35382 -1.43493 0.167023
rclavicle 2.07233e-014 -2.98177e-016
rhumerus -24.1554 -4.43246 -82.0046
rradius 101.059
rwrist -193.747
rhand -3.99955e-013 -4.44483e-013
rfingers 7.12502
rthumb 25.5904 -28.3008
lclavicle 2.07233e-014 -2.98177e-016
lhumerus -24.4795 -22.5236 79.8695
lradius 93.6215
lwrist -2.82642
lhand -1.58233e-012 1.17521e-012
lfingers 7.12502
lthumb 25.5904 28.3008
rfemur -32.8436 -5.52913 12.7301
rtibia 42.1178
rfoot 10.6751 7.18389
rtoes -0.122629
lfemur -33.0138 7.76845 -17.9729
ltibia 40.6667
lfoot 11.0885 -3.03479
ltoes -27.6475
68
root 4.32622 21.126 23.2503 6.76489 -6.79252 1.7732
lowerback 4.48804 0.964348 0.603092
upperback 7.74352 1.32032 -1.15055
thorax 5.55805 0.722974 -1.52696
lowerneck -1.88013 -2.18641 -0.0587607
upperneck 6.55206 -2.94414 0.454987
head 2.38976 -1.45105 0.0762547
rclavicle -2.43511e-015 9.88954e-015
rhumerus -24.4378 -4.8525 -83.1184
rradius 99.2382
rwrist -193.152
rhand -1.64594e-013 -5.02528e-013
rfingers 7.12502
rthumb 25.5904 -28.3008
lclavicle -2.43511e-015 9.88954e-015
lhumerus -24.8912 -22.2095 81.0037
lradius 92.2603
lwrist -2.28523
lhand -9.95514e-013 -3.97569e-014
lfingers 7.12502
lthumb 25.5904 28.3008
rfemur -33.3053 -5.0893 12.4937
rtibia 43.1325
rfoot 11.1823 7.33812
rtoes -1.20589
lfemur -33.3075 7.23616 -17.7081
ltibia 41.5368
lfoot 11.2903 -2.6051
ltoes -26.1625
69
root 4.31645 20.8274 23.3822 6.68132 -6.86042 1.74233
lowerback 4.57611 0.948804 0.68788
upperback 8.01544 1.30218 -1.18214
thorax 5.80188 0.722194 -1.60724
lowerneck -2.41463 -2.20851 0.120757
upperneck 6.4379 -2.97124 0.275711
head 2.44353 -1.46478 -0.0176943
rclavicle 7.15625e-015 3.8763e-015
rhumerus -24.8719 -5.33724 -84.1643
rradius 97.4582
rwrist -192.385
rhand 6.81434e-013 1.92424e-013
rfingers 7.12502
rthumb 25.5904 -28.3008
lclavicle 7.15625e-015 3.8763e-015
lhumerus -25.3825 -21.7989 82.1419
lradius 90.9606
lwrist -1.65206
lhand 1.13705e-012 -9.57347e-013
lfingers 7.12502
lthumb 25.5904 28.3008
rfemur -33.7393 -4.70887 12.2558
rtibia 44.2903
rfoot 11.3172 7.82
rtoes -3.88103
lfemur -33.627 6.697 -17.4418
ltibia 42.5884
lfoot 11.5109 -2.37368
ltoes -23.4315
70
root 4.30731 20.522 23.5132 6.54866 -6.92698 1.71503
lowerback 4.70922 0.940245 0.785035
upperback 8.309 1.2941 -1.2278
thorax 6.04551 0.728265 -1.70987
lowerneck -3.03264 -2.21136 0.315915
upperneck 6.26616 -2.97746 0.125422
head 2.49415 -1.46749 -0.105614
rclavicle 1.95306e-014 -3.27995e-015
rhumerus -25.3247 -5.94305 -85.1623
rradius 95.7212
rwrist -191.475
rhand 2.94201e-014 -1.22292e-012
rfingers 7.12502
rthumb 25.5904 -28.3008
lclavicle 1.95306e-014 -3.27995e-015
lhumerus -25.8451 -21.3583 83.2001
lradius 89.7395
lwrist -0.88112
lhand -2.22639e-012 -5.47055e-013
lfingers 7.12502
lthumb 25.5904 28.3008
rfemur -34.0604 -4.2551 11.96
rtibia 45.5732
rfoot 10.8234 8.50068
rtoes -7.18304
lfemur -33.9708 6.12367 -17.1683
ltibia 43.8729
lfoot 11.2687 -2.43451
ltoes -21.3823
71
root 4.29835 20.2149 23.644 6.38118 -7.00572 1.73145
lowerback 4.84795 0.924464 0.80306
upperback 8.62313 1.27486 -1.25091
thorax 6.30604 0.723712 -1.74495
lowerneck -3.6414 -2.19232 0.31169
upperneck 5.94537 -2.95567 0.155547
head 2.50007 -1.45641 -0.100299
rclavicle 2.4376e-014 4.96962e-016
rhumerus -25.7217 -6.6054 -86.0947
rradius 94.0808
rwrist -190.477
rhand 3.18055e-014 -5.50236e-013
rfingers 7.12502
rthumb 25.5904 -28.3008
lclavicle 2.4376e-014 4.96962e-016
lhumerus -26.2383 -20.7719 84.2461
lradius 88.4451
lwrist -0.0523583
lhand -1.06071e-012 -1.11319e-013
lfingers 7.12502
lthumb 25.5904 28.3008
rfemur -34.2812 -3.7566 11.5882
rtibia 46.969
rfoot 9.58543 9.43002
rtoes -10.7626
lfemur -34.3892 5.56159 -16.9558
ltibia 45.426
lfoot 10.2917 -3.03942
ltoes -22.0471
72
root 4.28999 19.9046 23.7749 6.12156 -7.05752 1.72197
lowerback 5.10809 0.900836 0.866409
upperback 8.92919 1.24598 -1.28403
thorax 6.49112 0.717398 -1.81807
lowerneck -3.91411 -2.16336 0.28023
upperneck 5.27312 -2.92271 0.3077
head 2.32985 -1.43864 -0.0437905
rclavicle 3.18055e-015 1.21756e-015
rhumerus -26.1057 -7.35222 -86.9716
rradius 92.6214
rwrist -189.407
rhand -8.11041e-014 4.19833e-013
rfingers 7.12502
rthumb 25.5904 -28.3008
lclavicle 3.18055e-015 1.21756e-015
lhumerus -26.5214 -20.235 85.2219
lradius 87.1068
lwrist 1.10738
lhand 2.05146e-013 2.54444e-013
lfingers 7.12502
lthumb 25.5904 28.3008
rfemur -34.384 -3.23796 11.2353
rtibia 48.5083
rfoot 7.70181 10.5648
rtoes -14.2484
lfemur -34.6525 5.0601 -16.7423
ltibia 47.2121
lfoot 8.68273 -3.93734
ltoes -23.7803
